<svg width="1500" height="1501" viewBox="0 0 1500 1501" fill="none" xmlns="http://www.w3.org/2000/svg">
<path d="M750 9C1159.8 9 1492 341.205 1492 751C1492 1160.8 1159.8 1493 750 1493C340.205 1493 8 1160.8 8 751C8 341.205 340.205 9 750 9ZM750 37C355.669 37 36 356.669 36 751C36 1145.33 355.669 1465 750 1465C1144.33 1465 1464 1145.33 1464 751C1464 356.669 1144.33 37 750 37ZM892.046 1190.25C894.2 1190.03 895.403 1191.15 895.653 1193.62L912.216 1356.33C912.545 1359.57 911.016 1361.35 907.631 1361.7L882.935 1364.21C881.396 1364.37 880.211 1364.18 879.379 1363.64C878.685 1362.93 878.267 1361.89 878.126 1360.5L865.84 1239.79C865.746 1238.87 865.475 1238.51 865.029 1238.71C864.568 1238.76 864.23 1239.26 864.017 1240.21L832.497 1365.85C831.963 1368.23 830.541 1369.55 828.233 1369.78L811.846 1371.45C809.23 1371.71 807.42 1370.73 806.416 1368.5L750.831 1253.13C750.414 1252.09 749.982 1251.66 749.536 1251.86C749.075 1251.91 748.898 1252.47 749.008 1253.55L761.154 1372.88C761.295 1374.26 761.166 1375.29 760.767 1375.95C760.352 1376.46 759.298 1376.8 757.606 1376.97L737.987 1378.97C735.064 1379.26 733.445 1377.87 733.132 1374.8L716.569 1212.08C716.303 1209.46 717.401 1208.03 719.863 1207.78L758.87 1203.81C760.409 1203.65 761.509 1203.77 762.172 1204.17C762.972 1204.4 763.597 1205.19 764.046 1206.55L815.757 1311.35C816.344 1312.53 816.944 1313.1 817.56 1313.03C818.159 1312.82 818.628 1312.07 818.964 1310.79L847.484 1199.22C848.11 1196.2 849.5 1194.58 851.654 1194.36L892.046 1190.25ZM587.983 1186.14C601.127 1182.61 615.261 1183.09 630.387 1187.57C645.512 1192.05 657.552 1199.33 666.504 1209.41C675.604 1219.52 681.305 1231.86 683.605 1246.41C685.95 1260.82 684.485 1276.92 679.212 1294.72C674.026 1312.21 666.526 1326.37 656.711 1337.17C647.044 1348.02 635.638 1355.2 622.495 1358.73C609.396 1362.1 595.283 1361.55 580.157 1357.07C564.883 1352.54 552.674 1345.3 543.529 1335.33C534.385 1325.36 528.641 1313.17 526.296 1298.76C524.1 1284.4 525.595 1268.47 530.78 1250.97C536.054 1233.18 543.62 1218.8 553.479 1207.85C563.339 1196.9 574.84 1189.66 587.983 1186.14ZM986.372 1144.5C989.28 1143.05 991.908 1143.47 994.255 1145.76L1118.3 1264.93C1119.26 1265.83 1119.81 1266.94 1119.95 1268.25C1120.08 1269.57 1119.6 1270.5 1118.49 1271.05L1093.36 1283.55C1091.42 1284.51 1089.72 1284.23 1088.27 1282.71L1059.49 1255.05C1059.01 1254.43 1058.49 1254.08 1057.93 1254.01C1057.45 1253.73 1056.79 1253.8 1055.96 1254.21L1001.75 1281.18C1000.5 1281.8 999.978 1282.83 1000.18 1284.28L1004.66 1324.55C1004.94 1325.45 1004.83 1326.28 1004.34 1327.04C1004 1327.73 1003.27 1328.35 1002.16 1328.9L982.013 1338.92C981.043 1339.41 980.04 1339.3 979.004 1338.61C977.968 1337.91 977.348 1336.67 977.145 1334.87L957.28 1163.63C957.146 1161.97 957.286 1160.69 957.703 1159.79C958.12 1158.89 959.021 1158.1 960.406 1157.41L986.372 1144.5ZM623.466 1210.93C609.971 1206.93 598.393 1208.98 588.731 1217.09C579.262 1225.09 571.342 1239.84 564.97 1261.35C558.774 1282.25 557.509 1298.5 561.178 1310.07C564.995 1321.68 573.725 1329.51 587.367 1333.56C600.713 1337.51 611.981 1335.69 621.17 1328.09C630.551 1320.38 638.362 1306 644.603 1284.94C650.975 1263.44 652.37 1246.76 648.79 1234.89C645.253 1222.87 636.812 1214.88 623.466 1210.93ZM446.371 1098.92C447.319 1098.63 448.367 1098.88 449.515 1099.66L557.052 1173.39C558.2 1174.18 558.81 1175.07 558.883 1176.05C559.043 1176.91 558.817 1177.79 558.205 1178.68L547.973 1193.61C546.748 1195.39 545.115 1195.59 543.074 1194.19L506.336 1169C504.933 1168.04 503.794 1168.2 502.919 1169.47L423.288 1285.62C421.801 1287.79 420.101 1288.21 418.188 1286.9L395.417 1271.29C393.631 1270.07 393.438 1268.43 394.837 1266.39L474.338 1150.44C475.387 1148.91 475.21 1147.66 473.807 1146.7L435.346 1120.33C433.178 1118.84 432.706 1117.21 433.93 1115.42L444.162 1100.5C444.774 1099.6 445.511 1099.08 446.371 1098.92ZM989.295 1184.76C988.397 1184 987.671 1183.75 987.117 1184.03C986.563 1184.31 986.354 1185.1 986.489 1186.42L993.82 1251.69C994.091 1254.32 995.196 1255.15 997.135 1254.19L1036.81 1234.46C1038.61 1233.56 1038.61 1232.18 1036.82 1230.31L989.295 1184.76ZM1117.28 1033.52C1118.29 1032.57 1119.29 1032.16 1120.27 1032.3C1121.14 1032.33 1121.95 1032.74 1122.69 1033.53L1135.07 1046.72C1136.55 1048.3 1136.39 1049.94 1134.59 1051.63L1102.1 1082.11C1100.86 1083.28 1100.77 1084.42 1101.83 1085.55L1198.19 1188.25C1199.99 1190.17 1200.04 1191.92 1198.35 1193.51L1178.21 1212.4C1176.63 1213.88 1175 1213.72 1173.3 1211.91L1077.11 1109.38C1075.84 1108.03 1074.58 1107.93 1073.34 1109.1L1039.33 1141C1037.42 1142.8 1035.72 1142.91 1034.24 1141.33L1021.85 1128.14C1021.11 1127.35 1020.76 1126.52 1020.79 1125.64C1020.71 1124.65 1021.18 1123.68 1022.19 1122.73L1117.28 1033.52ZM353.685 991.676C355.863 989.943 357.627 989.924 358.975 991.619L376.304 1013.41C377.651 1015.1 377.357 1016.72 375.42 1018.26L290.987 1085.41C280.698 1093.59 275.022 1101.86 273.959 1110.22C272.993 1118.69 276.071 1127.41 283.195 1136.37C287.72 1142.06 292.636 1146.25 297.942 1148.95C303.369 1151.55 309.237 1152.22 315.545 1150.95C321.853 1149.69 328.579 1146.22 335.721 1140.54L419.428 1073.97C421.486 1072.33 423.188 1072.36 424.536 1074.05L438.255 1091.3C439.506 1092.88 439.163 1094.44 437.227 1095.98L353.52 1162.55C341.536 1172.08 330.215 1177.72 319.558 1179.48C308.9 1181.24 298.808 1179.48 289.282 1174.21C279.853 1169.06 270.757 1160.98 261.996 1149.97C251.984 1137.38 245.943 1125.68 243.872 1114.88C241.802 1104.07 243.306 1093.79 248.382 1084.02C253.579 1074.16 261.989 1064.6 273.609 1055.36L353.685 991.676ZM1141.95 996.439C1143.19 994.665 1144.82 994.486 1146.85 995.904L1280.71 1089.49C1282.23 1090.56 1283.04 1091.69 1283.14 1092.9C1283.33 1093.97 1282.85 1095.33 1281.7 1096.98L1267.87 1116.76C1266.81 1118.28 1265.85 1119.11 1264.99 1119.27C1264 1119.33 1262.93 1118.96 1261.79 1118.17L1127.37 1024.18C1125.21 1022.67 1124.8 1020.97 1126.13 1019.06L1141.95 996.439ZM315.605 903.081C317.27 903.131 318.526 903.413 319.373 903.927C320.219 904.441 320.908 905.424 321.439 906.876L331.397 934.113C332.512 937.164 331.803 939.729 329.27 941.808L197.095 1051.88C196.092 1052.74 194.93 1053.17 193.608 1053.16C192.287 1053.15 191.413 1052.56 190.988 1051.4L181.35 1025.03C180.606 1023 181.072 1021.35 182.748 1020.08L213.427 994.533C214.1 994.123 214.502 993.646 214.634 993.104C214.963 992.655 214.969 991.993 214.65 991.122L193.858 934.251C193.38 932.944 192.408 932.311 190.941 932.354L150.428 932.344C149.503 932.517 148.69 932.321 147.988 931.754C147.34 931.332 146.804 930.54 146.379 929.378L138.651 908.242C138.28 907.226 138.497 906.241 139.301 905.288C140.105 904.335 141.412 903.857 143.223 903.854L315.605 903.081ZM1224.27 865.237C1231.29 863.822 1238.27 863.799 1245.2 865.17C1247.39 865.523 1248.69 866.028 1249.1 866.685C1249.56 867.197 1249.64 868.059 1249.34 869.268L1241.47 894.588C1241.02 895.741 1240.53 896.377 1239.98 896.497C1239.29 896.561 1238.39 896.541 1237.27 896.437C1228.52 895.025 1220.59 896.004 1213.47 899.374C1206.21 902.688 1200.86 908.741 1197.44 917.533C1192.67 929.784 1193.73 941.149 1200.6 951.625C1207.48 962.101 1221.15 971.323 1241.62 979.288C1261.8 987.141 1277.91 989.676 1289.95 986.892C1302.04 983.964 1310.64 975.941 1315.74 962.825C1319.22 953.889 1320.03 945.407 1318.17 937.383C1316.17 929.302 1310.77 921.224 1301.96 913.149C1300.98 912.268 1301.12 910.831 1302.4 908.838L1313.44 891.975C1313.81 891.454 1314.37 891.09 1315.11 890.882C1315.91 890.53 1317.19 890.863 1318.95 891.88C1321.93 894.035 1325.02 896.979 1328.21 900.711C1331.41 904.444 1334.35 908.826 1337.04 913.855C1339.73 918.885 1341.75 924.568 1343.1 930.902C1344.51 937.093 1344.99 943.753 1344.54 950.88C1344.09 958.007 1342.32 965.535 1339.24 973.462C1333.51 988.163 1325.09 999.574 1313.96 1007.69C1302.9 1015.66 1290.04 1020.12 1275.4 1021.06C1260.62 1021.95 1244.87 1019.14 1228.15 1012.63C1211.28 1006.07 1197.92 997.548 1188.05 987.071C1178.19 976.594 1172.02 964.732 1169.54 951.485C1167.06 938.239 1168.68 924.265 1174.4 909.563C1177.49 901.636 1181.63 894.617 1186.83 888.508C1191.88 882.343 1197.67 877.291 1204.18 873.353C1210.55 869.358 1217.24 866.653 1224.27 865.237ZM224.038 929.641C221.395 929.619 220.446 930.625 221.189 932.658L236.404 974.276C237.095 976.164 238.47 976.321 240.528 974.745L291.059 932.558C291.916 931.75 292.238 931.056 292.026 930.475C291.814 929.894 291.047 929.598 289.726 929.587L224.038 929.641ZM133.479 608.397C134.514 607.774 135.561 608.09 136.62 609.348L183.729 664.918C184.788 666.175 186.305 666.487 188.28 665.851L298.71 625.272C300.18 624.872 301.35 624.894 302.221 625.341C303.091 625.787 303.409 626.775 303.175 628.304L298.746 657.198C298.301 660.103 297.014 661.862 294.886 662.475L211.896 692.472C210.203 693.308 210.233 694.642 211.986 696.476L234.914 722.991C235.973 724.248 237.42 725.019 239.254 725.3L282.596 731.942C285.653 732.411 286.913 734.404 286.374 737.92L282.684 761.998C282.426 763.679 281.933 764.857 281.204 765.527C280.346 766.022 279.228 766.163 277.853 765.952L115.492 741.067C113.047 740.692 111.988 739.435 112.315 737.295L116.533 709.776C116.861 707.636 118.172 706.741 120.465 707.093L194.307 718.41C195.682 718.621 196.406 718.497 196.477 718.039C196.547 717.58 196.257 716.91 195.61 716.028L130.183 642.159C129.077 641.208 128.365 640.238 128.047 639.251C127.729 638.264 127.71 636.852 127.991 635.018L131.576 611.626C131.834 609.945 132.469 608.868 133.479 608.397ZM1370.39 614.998C1373 614.696 1374.44 615.698 1374.71 618.002L1382.24 683.225C1383.66 695.516 1383.1 706.869 1380.57 717.281C1378.04 727.694 1373.27 736.264 1366.26 742.989C1359.25 749.715 1349.75 753.771 1337.77 755.155C1326.4 756.469 1316.56 754.88 1308.26 750.39C1300.13 746.035 1293.61 739.47 1288.7 730.695C1283.8 721.921 1280.63 711.387 1279.21 699.096L1275.03 662.912C1274.86 661.376 1274 660.697 1272.46 660.874L1211.85 667.875C1208.78 668.23 1207.05 666.717 1206.66 663.337L1203.78 638.446C1203.6 636.91 1203.79 635.799 1204.33 635.113C1205.03 634.41 1206.07 633.979 1207.45 633.819L1370.39 614.998ZM1354.04 655.421C1353.74 652.809 1352.36 651.645 1349.9 651.929L1303.35 657.307C1300.73 657.608 1299.54 658.758 1299.77 660.755L1303.37 691.868C1304.47 701.394 1307.65 708.733 1312.92 713.886C1318.34 719.02 1325.5 721.073 1334.41 720.044C1340.71 719.316 1345.62 717.348 1349.15 714.139C1352.84 711.065 1355.31 706.886 1356.57 701.604C1357.85 696.474 1358.11 690.682 1357.37 684.229L1354.04 655.421ZM1294.33 425.019C1296.74 423.981 1298.41 424.529 1299.33 426.66L1326.89 490.823C1334.7 509.013 1337.08 524.741 1334.02 538.005C1331.17 551.35 1322.85 560.984 1309.06 566.904C1301.53 570.139 1294.31 571.557 1287.41 571.156C1280.65 570.695 1274.44 568.983 1268.79 566.022C1263.29 563.001 1258.51 559.328 1254.46 555.006C1253.63 553.849 1252.59 553.962 1251.33 555.344L1197.73 612.2C1196.69 613.318 1195.48 613.837 1194.1 613.757C1192.86 613.616 1191.97 612.905 1191.42 611.626L1180.25 585.62C1179.4 583.631 1179.92 581.721 1181.83 579.892L1233.55 528.642C1235.09 527.138 1235.19 524.822 1233.84 521.696L1222.86 496.115C1222.43 495.121 1221.84 494.533 1221.09 494.351C1220.54 494.249 1219.98 494.32 1219.41 494.564L1157.81 521.025C1154.82 522.307 1152.63 521.313 1151.23 518.045L1141.52 495.449C1140.85 493.887 1140.68 492.698 1141 491.886C1141.47 491.012 1142.34 490.3 1143.62 489.751L1294.33 425.019ZM160.426 505.365C161.281 503.376 162.846 502.87 165.119 503.848L315.163 568.367C316.868 569.1 317.892 570.045 318.236 571.203C318.641 572.219 318.446 573.651 317.652 575.498L308.121 597.664C307.388 599.369 306.614 600.383 305.802 600.707C304.847 600.97 303.731 600.826 302.452 600.276L151.769 535.482C149.353 534.444 148.603 532.859 149.52 530.728L160.426 505.365ZM1291.62 468.096C1290.52 465.538 1288.98 464.687 1286.99 465.541L1246.7 482.846C1244.57 483.761 1243.9 485.143 1244.69 486.99L1256.96 515.555C1261.11 525.218 1266.17 531.713 1272.15 535.039C1278.18 538.507 1285.04 538.593 1292.71 535.297C1300.53 531.94 1305.32 527.021 1307.08 520.541C1308.98 514 1308.13 506.537 1304.53 498.152L1291.62 468.096ZM279.075 345.329C292.119 341.317 304.584 343.887 316.472 353.039C322.967 358.039 327.723 363.652 330.738 369.877C333.631 376.008 335.161 382.261 335.328 388.636C335.373 394.916 334.494 400.876 332.69 406.515C332.087 407.806 332.694 408.665 334.514 409.09L410.283 428.187C411.763 428.545 412.805 429.348 413.408 430.593C413.888 431.743 413.704 432.87 412.855 433.973L395.589 456.4C394.268 458.116 392.344 458.588 389.817 457.813L319.862 437.629C317.797 437.015 315.727 438.057 313.651 440.753L296.669 462.812C296.009 463.67 295.782 464.472 295.989 465.217C296.168 465.745 296.503 466.198 296.993 466.575L350.121 507.476C352.694 509.457 352.896 511.857 350.727 514.676L335.725 534.163C334.687 535.511 333.734 536.242 332.866 536.354C331.876 536.373 330.829 535.957 329.727 535.108L199.756 435.051C197.673 433.447 197.339 431.726 198.754 429.888L241.353 374.553C253.429 358.866 266.004 349.124 279.075 345.329ZM1187.62 299.217C1189.19 298.636 1190.46 298.423 1191.43 298.58C1192.41 298.737 1193.42 299.389 1194.46 300.534L1213.95 322.011C1216.13 324.416 1216.44 327.059 1214.88 329.939L1133.92 481.709C1133.32 482.884 1132.4 483.716 1131.17 484.204C1129.95 484.692 1128.92 484.477 1128.08 483.561L1109.22 462.771C1107.77 461.168 1107.58 459.461 1108.65 457.652L1127.44 422.432C1127.91 421.798 1128.1 421.205 1128.02 420.653C1128.16 420.113 1127.91 419.498 1127.29 418.811L1086.6 373.968C1085.66 372.937 1084.53 372.717 1083.18 373.309L1045.65 388.567C1044.86 389.076 1044.03 389.2 1043.17 388.939C1042.41 388.793 1041.61 388.261 1040.78 387.345L1025.66 370.679C1024.93 369.877 1024.76 368.884 1025.15 367.698C1025.53 366.513 1026.57 365.577 1028.24 364.892L1187.62 299.217ZM296.841 382.723C290.1 377.534 283.472 375.748 276.955 377.367C270.316 378.892 264.212 383.271 258.646 390.502L238.691 416.422C236.993 418.628 237.002 420.392 238.718 421.713L273.462 448.461C275.3 449.876 276.833 449.786 278.06 448.193L297.023 423.56C303.439 415.226 306.643 407.64 306.637 400.804C306.724 393.844 303.459 387.817 296.841 382.723ZM427.574 218.34C441.555 217.976 452.686 223.863 460.967 236C465.935 243.282 468.203 250.723 467.77 258.32C467.336 265.918 463.847 274.665 457.304 284.559C457.008 284.948 456.991 285.334 457.252 285.717C457.513 286.1 457.879 286.225 458.35 286.092C470.065 282.406 480.053 281.677 488.313 283.905C496.701 286.046 503.903 291.524 509.917 300.34C518.721 313.244 520.383 326.247 514.903 339.347C509.464 352.232 497.29 365.124 478.381 378.024L426.828 413.196C425.806 413.893 424.801 414.204 423.813 414.129C422.867 413.839 422.088 413.247 421.478 412.353L329.038 276.857C328.254 275.708 327.963 274.596 328.166 273.521C328.369 272.447 328.982 271.561 330.004 270.863L379.257 237.261C397.399 224.883 413.506 218.576 427.574 218.34ZM1176.11 333.477C1175.69 333.018 1174.87 333.034 1173.64 333.521L1112.82 358.324C1110.36 359.3 1109.86 360.589 1111.31 362.192L1141.09 395.009C1142.44 396.497 1143.77 396.124 1145.09 393.89L1176 335.771C1176.48 334.7 1176.52 333.935 1176.11 333.477ZM467.087 308.777C462.608 307.152 457.737 307.011 452.475 308.354C447.34 309.611 442.154 312.026 436.916 315.6L413.151 331.812C410.852 333.381 410.399 335.188 411.794 337.232L436.374 373.262C437.856 375.433 439.428 375.953 441.089 374.82L464.086 359.131C473.924 352.419 479.987 345.662 482.273 338.859C484.601 331.842 483.497 325.011 478.965 318.367C475.653 313.512 471.693 310.315 467.087 308.777ZM971.447 156.458C972.702 154.147 974.349 153.546 976.388 154.653L1000.65 167.828C1002.55 168.862 1002.91 170.466 1001.73 172.641L971.948 227.483C970.768 229.658 971.129 231.262 973.031 232.295L1026.85 261.525C1028.76 262.558 1030.26 262.055 1031.37 260.017L1061.26 204.971C1062.44 202.796 1063.99 202.225 1065.89 203.259L1090.15 216.435C1092.19 217.542 1092.58 219.25 1091.33 221.561L1013.05 365.701C1012.38 366.924 1011.6 367.728 1010.68 368.112C1009.84 368.361 1008.68 368.078 1007.18 367.267L985.57 355.531C982.444 353.834 981.62 351.624 983.096 348.906L1015.87 288.56C1016.68 287.065 1016.27 285.874 1014.64 284.988L960.001 255.315C958.37 254.43 957.149 254.735 956.337 256.229L923.564 316.577C922.088 319.295 919.786 319.805 916.66 318.107L895.05 306.371C893.555 305.559 892.683 304.734 892.435 303.896C892.26 302.921 892.505 301.821 893.169 300.598L971.447 156.458ZM624.24 128.837C625.578 128.452 626.577 128.568 627.236 129.183C627.896 129.798 628.025 130.807 627.624 132.21L599.999 234.294C599.555 235.548 599.451 236.866 599.687 238.246C599.88 239.478 600.425 241.655 601.322 244.776L618.436 304.31C619.375 307.579 617.987 309.749 614.271 310.817L591.306 317.419C589.522 317.932 588.247 317.976 587.481 317.553C586.673 316.98 586.055 315.951 585.628 314.465L568.194 253.816C567.639 251.884 567.01 250.536 566.308 249.772C565.754 248.966 564.914 248.001 563.786 246.877L485.338 173.834C484.062 172.753 483.518 171.702 483.707 170.682C484.045 169.619 485.107 168.831 486.891 168.318L514.315 160.436C516.099 159.923 517.374 159.878 518.14 160.302C519.011 160.534 520.085 161.191 521.361 162.272L575.271 214.608C576.44 215.88 577.344 216.505 577.981 216.483C578.725 216.27 579.329 215.291 579.794 213.549L597.172 140.48C597.488 138.781 597.954 137.601 598.568 136.941C599.183 136.282 600.308 135.716 601.943 135.246L624.24 128.837ZM416.761 248.185C409.337 248.007 401.537 250.708 393.36 256.286L371.513 271.191C369.341 272.673 368.909 274.372 370.216 276.288L393.881 310.977C395.363 313.148 396.935 313.668 398.596 312.535L423.317 295.668C426.511 293.489 429.361 291.078 431.863 288.435C434.406 285.576 436.261 282.531 437.428 279.302C438.722 275.985 439.244 272.632 438.993 269.246C438.783 265.645 437.458 262.056 435.018 258.479C430.311 251.579 424.225 248.148 416.761 248.185ZM808.288 122.13C818.485 119.536 829.905 119.358 842.546 121.595C850.77 123.05 858.286 125.402 865.094 128.648C872.081 131.77 878.158 135.594 883.325 140.121C888.645 144.675 892.778 149.725 895.723 155.272C896.197 156.142 896.506 157.061 896.648 158.028C896.818 158.844 896.2 159.677 894.793 160.527L876.43 169.765C875.561 170.239 874.759 170.333 874.024 170.046C873.469 169.634 872.69 168.71 871.688 167.276C868.733 162.67 864.86 158.371 860.068 154.382C855.277 150.393 848.236 147.577 838.945 145.933C828.741 144.127 820.624 144.732 814.593 147.748C808.562 150.765 804.966 155.548 803.807 162.097C803.429 164.229 803.482 166.594 803.965 169.192C804.6 171.818 806.149 174.605 808.611 177.554C811.253 180.377 815.23 183.202 820.541 186.026L853.863 202.761C867.147 209.352 876.107 217.3 880.743 226.603C885.559 235.779 887.01 245.775 885.097 256.588C883.264 266.944 879.009 275.458 872.331 282.13C865.653 288.801 857.076 293.331 846.602 295.718C836.154 297.953 824.152 297.871 810.598 295.473C800.698 293.721 791.61 290.934 783.333 287.113C775.209 283.32 768.186 278.621 762.267 273.019C756.499 267.443 752.098 261.245 749.064 254.426C748.519 253.073 748.403 251.952 748.717 251.065C749.21 250.053 750.147 249.198 751.526 248.5L767.698 240.995C769.714 240.253 771.166 240.039 772.053 240.353C773.092 240.694 773.911 241.388 774.511 242.437C777.456 247.984 780.473 252.68 783.562 256.525C786.831 260.245 790.767 263.298 795.371 265.684C799.975 268.069 805.78 269.881 812.786 271.121C823.447 273.008 832.286 272.765 839.303 270.395C846.346 267.871 850.541 262.802 851.889 255.188C852.428 252.142 852.227 249.279 851.288 246.6C850.528 243.795 848.813 241.057 846.145 238.386C843.628 235.742 839.715 233.006 834.403 230.182L801.767 213.568C793.418 209.264 786.754 204.315 781.775 198.722C776.976 193.003 773.668 186.841 771.853 180.237C770.037 173.634 769.709 167.056 770.868 160.508C772.593 150.761 776.705 142.614 783.203 136.067C789.729 129.369 798.091 124.723 808.288 122.13Z" fill="white"/>
</svg>
