<svg width="1500" height="1501" viewBox="0 0 1500 1501" fill="none" xmlns="http://www.w3.org/2000/svg">
<path d="M892.045 1190.25C894.2 1190.03 895.402 1191.15 895.653 1193.62L912.215 1356.33C912.544 1359.57 911.016 1361.35 907.631 1361.7L882.935 1364.21C881.397 1364.37 880.21 1364.18 879.378 1363.64C878.685 1362.93 878.267 1361.89 878.127 1360.5L865.839 1239.79C865.745 1238.87 865.476 1238.51 865.03 1238.71C864.569 1238.76 864.231 1239.26 864.017 1240.21L832.497 1365.85C831.962 1368.23 830.541 1369.54 828.233 1369.78L811.846 1371.45C809.231 1371.71 807.42 1370.73 806.416 1368.5L750.832 1253.13C750.414 1252.08 749.982 1251.66 749.537 1251.86C749.075 1251.91 748.899 1252.47 749.008 1253.55L761.154 1372.88C761.295 1374.26 761.166 1375.28 760.767 1375.95C760.353 1376.46 759.299 1376.8 757.606 1376.97L737.988 1378.97C735.065 1379.26 733.446 1377.87 733.132 1374.8L716.57 1212.08C716.304 1209.46 717.402 1208.03 719.864 1207.78L758.87 1203.81C760.408 1203.65 761.509 1203.77 762.171 1204.17C762.972 1204.4 763.597 1205.19 764.045 1206.54L815.756 1311.35C816.343 1312.53 816.945 1313.1 817.56 1313.03C818.16 1312.82 818.628 1312.07 818.964 1310.79L847.485 1199.22C848.111 1196.2 849.501 1194.58 851.655 1194.36L892.045 1190.25ZM587.983 1186.14C601.126 1182.61 615.262 1183.09 630.387 1187.57C645.513 1192.05 657.552 1199.33 666.504 1209.4C675.605 1219.52 681.305 1231.86 683.606 1246.41C685.951 1260.82 684.486 1276.92 679.212 1294.72C674.027 1312.21 666.527 1326.36 656.711 1337.17C647.045 1348.01 635.639 1355.2 622.496 1358.73C609.396 1362.1 595.283 1361.55 580.158 1357.07C564.884 1352.54 552.674 1345.29 543.53 1335.33C534.386 1325.36 528.641 1313.17 526.296 1298.76C524.1 1284.4 525.594 1268.47 530.78 1250.97C536.053 1233.18 543.62 1218.8 553.479 1207.85C563.338 1196.9 574.84 1189.66 587.983 1186.14ZM986.373 1144.5C989.281 1143.05 991.908 1143.47 994.254 1145.76L1118.3 1264.93C1119.26 1265.83 1119.81 1266.94 1119.95 1268.25C1120.08 1269.57 1119.6 1270.5 1118.49 1271.05L1093.36 1283.55C1091.42 1284.51 1089.72 1284.23 1088.27 1282.71L1059.49 1255.05C1059.01 1254.43 1058.49 1254.08 1057.94 1254.01C1057.45 1253.73 1056.79 1253.8 1055.96 1254.21L1001.75 1281.17C1000.5 1281.79 999.979 1282.83 1000.18 1284.28L1004.66 1324.55C1004.94 1325.45 1004.83 1326.28 1004.35 1327.04C1004 1327.73 1003.27 1328.35 1002.16 1328.9L982.012 1338.92C981.043 1339.4 980.04 1339.3 979.004 1338.61C977.969 1337.91 977.349 1336.66 977.145 1334.87L957.28 1163.63C957.145 1161.97 957.287 1160.69 957.704 1159.79C958.121 1158.89 959.021 1158.1 960.406 1157.41L986.373 1144.5ZM623.465 1210.93C609.971 1206.93 598.393 1208.98 588.732 1217.09C579.263 1225.09 571.341 1239.84 564.969 1261.34C558.773 1282.25 557.51 1298.49 561.178 1310.07C564.995 1321.68 573.725 1329.51 587.368 1333.56C600.714 1337.51 611.982 1335.69 621.17 1328.09C630.552 1320.38 638.363 1306 644.603 1284.94C650.975 1263.44 652.37 1246.75 648.79 1234.89C645.253 1222.87 636.811 1214.88 623.465 1210.93ZM446.372 1098.91C447.319 1098.63 448.367 1098.88 449.514 1099.66L557.051 1173.39C558.199 1174.18 558.81 1175.07 558.883 1176.05C559.044 1176.91 558.818 1177.79 558.206 1178.68L547.973 1193.61C546.749 1195.39 545.116 1195.59 543.075 1194.19L506.336 1169C504.933 1168.04 503.794 1168.19 502.92 1169.47L423.288 1285.62C421.801 1287.79 420.1 1288.21 418.187 1286.9L395.418 1271.29C393.632 1270.07 393.438 1268.43 394.837 1266.39L474.337 1150.44C475.387 1148.91 475.21 1147.66 473.807 1146.7L435.346 1120.33C433.178 1118.84 432.706 1117.2 433.93 1115.42L444.163 1100.49C444.775 1099.6 445.512 1099.07 446.372 1098.91ZM989.295 1184.76C988.397 1184 987.672 1183.75 987.118 1184.03C986.564 1184.3 986.355 1185.1 986.49 1186.41L993.82 1251.69C994.091 1254.32 995.196 1255.15 997.134 1254.19L1036.81 1234.46C1038.61 1233.56 1038.61 1232.18 1036.82 1230.31L989.295 1184.76ZM1117.28 1033.52C1118.29 1032.57 1119.29 1032.16 1120.27 1032.3C1121.14 1032.33 1121.95 1032.74 1122.69 1033.53L1135.07 1046.72C1136.56 1048.3 1136.39 1049.94 1134.59 1051.63L1102.1 1082.11C1100.86 1083.27 1100.77 1084.42 1101.83 1085.55L1198.19 1188.25C1199.99 1190.16 1200.04 1191.92 1198.35 1193.5L1178.21 1212.39C1176.63 1213.88 1175 1213.71 1173.31 1211.91L1077.11 1109.38C1075.84 1108.03 1074.58 1107.93 1073.34 1109.1L1039.33 1141C1037.42 1142.8 1035.72 1142.91 1034.24 1141.33L1021.85 1128.14C1021.11 1127.35 1020.76 1126.51 1020.78 1125.64C1020.71 1124.65 1021.18 1123.68 1022.19 1122.73L1117.28 1033.52ZM353.685 991.675C355.864 989.942 357.627 989.924 358.975 991.618L376.304 1013.41C377.652 1015.1 377.357 1016.72 375.42 1018.26L290.987 1085.41C280.698 1093.59 275.021 1101.86 273.959 1110.22C272.992 1118.69 276.072 1127.41 283.196 1136.37C287.72 1142.06 292.636 1146.25 297.942 1148.95C303.369 1151.55 309.238 1152.21 315.545 1150.95C321.853 1149.69 328.578 1146.22 335.72 1140.54L419.427 1073.97C421.485 1072.33 423.189 1072.36 424.537 1074.05L438.255 1091.3C439.507 1092.88 439.164 1094.43 437.227 1095.97L353.52 1162.55C341.536 1172.08 330.215 1177.72 319.558 1179.48C308.901 1181.24 298.809 1179.48 289.283 1174.21C279.853 1169.06 270.757 1160.98 261.997 1149.96C251.985 1137.38 245.943 1125.68 243.873 1114.88C241.802 1104.07 243.305 1093.79 248.381 1084.02C253.579 1074.15 261.988 1064.6 273.609 1055.36L353.685 991.675ZM1141.95 996.438C1143.19 994.664 1144.82 994.486 1146.85 995.903L1280.71 1089.49C1282.23 1090.56 1283.04 1091.69 1283.14 1092.89C1283.33 1093.97 1282.85 1095.33 1281.7 1096.98L1267.87 1116.76C1266.81 1118.28 1265.85 1119.11 1264.98 1119.27C1264 1119.33 1262.93 1118.96 1261.79 1118.16L1127.37 1024.18C1125.21 1022.67 1124.8 1020.96 1126.13 1019.06L1141.95 996.438ZM315.606 903.08C317.271 903.13 318.527 903.412 319.374 903.926C320.22 904.44 320.909 905.423 321.44 906.875L331.397 934.112C332.512 937.163 331.804 939.728 329.27 941.807L197.094 1051.88C196.092 1052.74 194.929 1053.17 193.608 1053.16C192.287 1053.15 191.414 1052.56 190.989 1051.4L181.35 1025.03C180.607 1023 181.073 1021.35 182.749 1020.08L213.427 994.532C214.1 994.121 214.503 993.645 214.634 993.103C214.964 992.654 214.969 991.992 214.65 991.121L193.859 934.25C193.381 932.943 192.408 932.31 190.942 932.352L150.427 932.343C149.503 932.516 148.69 932.32 147.989 931.753C147.341 931.331 146.803 930.539 146.378 929.377L138.652 908.241C138.28 907.224 138.497 906.24 139.301 905.287C140.106 904.334 141.413 903.856 143.223 903.852L315.606 903.08ZM1224.27 865.236C1231.29 863.821 1238.27 863.798 1245.2 865.169C1247.39 865.522 1248.69 866.027 1249.1 866.684C1249.56 867.196 1249.64 868.058 1249.34 869.267L1241.47 894.587C1241.02 895.74 1240.53 896.376 1239.98 896.496C1239.29 896.56 1238.39 896.54 1237.27 896.435C1228.52 895.024 1220.59 896.003 1213.47 899.373C1206.21 902.687 1200.86 908.74 1197.44 917.532C1192.67 929.783 1193.73 941.148 1200.61 951.624C1207.48 962.1 1221.15 971.322 1241.62 979.287C1261.8 987.14 1277.91 989.674 1289.95 986.891C1302.04 983.962 1310.64 975.94 1315.74 962.824C1319.22 953.888 1320.03 945.406 1318.18 937.382C1316.18 929.301 1310.77 921.223 1301.96 913.148C1300.98 912.267 1301.12 910.83 1302.4 908.837L1313.44 891.974C1313.81 891.453 1314.37 891.089 1315.11 890.881C1315.91 890.529 1317.19 890.862 1318.95 891.879C1321.93 894.034 1325.02 896.977 1328.21 900.71C1331.41 904.442 1334.35 908.825 1337.04 913.854C1339.73 918.884 1341.75 924.567 1343.1 930.901C1344.51 937.092 1344.99 943.752 1344.54 950.879C1344.09 958.006 1342.32 965.534 1339.24 973.461C1333.51 988.163 1325.09 999.573 1313.97 1007.69C1302.9 1015.66 1290.04 1020.12 1275.4 1021.06C1260.62 1021.95 1244.87 1019.14 1228.15 1012.63C1211.28 1006.07 1197.92 997.547 1188.06 987.07C1178.19 976.593 1172.02 964.73 1169.54 951.484C1167.06 938.238 1168.68 924.264 1174.4 909.562C1177.49 901.635 1181.63 894.616 1186.83 888.507C1191.88 882.342 1197.67 877.29 1204.18 873.351C1210.55 869.357 1217.24 866.652 1224.27 865.236ZM224.039 929.64C221.396 929.618 220.446 930.624 221.189 932.657L236.405 974.275C237.095 976.163 238.47 976.32 240.528 974.744L291.059 932.557C291.916 931.749 292.239 931.055 292.027 930.474C291.814 929.893 291.047 929.597 289.726 929.586L224.039 929.64ZM133.48 608.396C134.514 607.773 135.561 608.09 136.62 609.347L183.729 664.917C184.788 666.174 186.305 666.485 188.28 665.85L298.711 625.271C300.18 624.871 301.35 624.894 302.22 625.34C303.091 625.786 303.409 626.774 303.174 628.303L298.746 657.197C298.3 660.102 297.014 661.861 294.886 662.474L211.896 692.471C210.204 693.306 210.233 694.641 211.986 696.475L234.914 722.99C235.973 724.248 237.42 725.017 239.254 725.299L282.596 731.941C285.654 732.41 286.913 734.403 286.375 737.919L282.683 761.997C282.425 763.679 281.932 764.856 281.204 765.526C280.346 766.02 279.229 766.162 277.853 765.951L115.493 741.066C113.047 740.691 111.988 739.434 112.316 737.294L116.534 709.775C116.862 707.635 118.173 706.74 120.465 707.092L194.307 718.409C195.683 718.62 196.406 718.496 196.476 718.038C196.546 717.579 196.258 716.909 195.611 716.027L130.182 642.158C129.077 641.207 128.364 640.237 128.046 639.25C127.729 638.262 127.711 636.851 127.992 635.017L131.577 611.625C131.835 609.944 132.469 608.867 133.48 608.396ZM1370.39 614.997C1373 614.695 1374.44 615.697 1374.71 618.001L1382.24 683.224C1383.66 695.515 1383.1 706.867 1380.57 717.28C1378.04 727.693 1373.27 736.262 1366.26 742.988C1359.25 749.714 1349.75 753.77 1337.77 755.154C1326.4 756.467 1316.56 754.879 1308.26 750.389C1300.13 746.034 1293.61 739.469 1288.7 730.694C1283.8 721.919 1280.63 711.386 1279.21 699.095L1275.03 662.911C1274.86 661.375 1274 660.696 1272.46 660.873L1211.85 667.874C1208.78 668.229 1207.05 666.716 1206.66 663.336L1203.78 638.445C1203.6 636.909 1203.79 635.798 1204.33 635.112C1205.03 634.409 1206.07 633.978 1207.45 633.818L1370.39 614.997ZM1354.04 655.42C1353.74 652.808 1352.36 651.644 1349.9 651.928L1303.35 657.306C1300.73 657.607 1299.54 658.757 1299.77 660.754L1303.37 691.867C1304.47 701.393 1307.65 708.732 1312.92 713.885C1318.34 719.019 1325.5 721.072 1334.41 720.043C1340.71 719.315 1345.62 717.347 1349.15 714.138C1352.84 711.064 1355.31 706.886 1356.57 701.602C1357.85 696.473 1358.11 690.681 1357.37 684.228L1354.04 655.42ZM1294.33 425.017C1296.74 423.98 1298.41 424.528 1299.33 426.659L1326.89 490.822C1334.7 509.012 1337.08 524.74 1334.02 538.004C1331.17 551.349 1322.85 560.982 1309.06 566.903C1301.53 570.138 1294.31 571.556 1287.41 571.155C1280.65 570.693 1274.44 568.982 1268.79 566.021C1263.29 563 1258.51 559.327 1254.46 555.005C1253.63 553.849 1252.59 553.961 1251.33 555.343L1197.73 612.199C1196.69 613.317 1195.48 613.836 1194.1 613.756C1192.86 613.614 1191.97 612.904 1191.42 611.625L1180.25 585.619C1179.4 583.63 1179.92 581.72 1181.83 579.891L1233.55 528.641C1235.09 527.137 1235.19 524.821 1233.85 521.695L1222.86 496.114C1222.43 495.12 1221.84 494.532 1221.09 494.35C1220.54 494.249 1219.98 494.319 1219.41 494.563L1157.81 521.024C1154.82 522.306 1152.63 521.312 1151.23 518.044L1141.52 495.448C1140.85 493.885 1140.68 492.697 1141 491.885C1141.47 491.011 1142.34 490.299 1143.62 489.75L1294.33 425.017ZM160.425 505.364C161.281 503.375 162.846 502.869 165.119 503.847L315.163 568.366C316.867 569.099 317.893 570.044 318.237 571.202C318.642 572.218 318.447 573.65 317.653 575.497L308.122 597.663C307.389 599.368 306.615 600.382 305.802 600.706C304.848 600.969 303.73 600.825 302.452 600.275L151.768 535.481C149.353 534.443 148.604 532.858 149.52 530.726L160.425 505.364ZM1291.62 468.095C1290.52 465.537 1288.98 464.685 1286.99 465.54L1246.7 482.845C1244.57 483.76 1243.9 485.142 1244.69 486.989L1256.96 515.554C1261.11 525.217 1266.17 531.712 1272.15 535.038C1278.18 538.506 1285.04 538.592 1292.71 535.296C1300.53 531.939 1305.32 527.02 1307.08 520.54C1308.98 513.999 1308.13 506.536 1304.53 498.151L1291.62 468.095ZM279.075 345.328C292.118 341.316 304.584 343.886 316.472 353.038C322.967 358.038 327.724 363.651 330.739 369.876C333.631 376.006 335.161 382.26 335.329 388.635C335.373 394.915 334.493 400.875 332.69 406.514C332.086 407.805 332.695 408.664 334.514 409.089L410.283 428.185C411.763 428.544 412.806 429.347 413.409 430.592C413.889 431.742 413.704 432.869 412.855 433.972L395.589 456.399C394.269 458.115 392.345 458.587 389.818 457.812L319.863 437.628C317.798 437.014 315.727 438.056 313.652 440.752L296.669 462.811C296.008 463.669 295.782 464.471 295.989 465.216C296.168 465.744 296.503 466.197 296.993 466.574L350.121 507.475C352.694 509.456 352.896 511.856 350.726 514.675L335.725 534.162C334.687 535.51 333.734 536.241 332.867 536.353C331.877 536.372 330.83 535.956 329.727 535.107L199.756 435.05C197.674 433.446 197.339 431.725 198.753 429.887L241.352 374.552C253.429 358.865 266.003 349.123 279.075 345.328ZM1187.63 299.216C1189.19 298.635 1190.46 298.422 1191.43 298.579C1192.41 298.736 1193.42 299.388 1194.46 300.533L1213.95 322.01C1216.13 324.415 1216.44 327.058 1214.88 329.938L1133.92 481.708C1133.32 482.883 1132.4 483.715 1131.17 484.203C1129.95 484.69 1128.92 484.476 1128.09 483.559L1109.22 462.77C1107.77 461.167 1107.58 459.46 1108.65 457.651L1127.44 422.431C1127.91 421.797 1128.1 421.204 1128.02 420.652C1128.16 420.111 1127.91 419.497 1127.29 418.809L1086.6 373.967C1085.66 372.936 1084.52 372.716 1083.18 373.308L1045.65 388.566C1044.86 389.075 1044.03 389.199 1043.17 388.938C1042.41 388.792 1041.61 388.26 1040.78 387.344L1025.66 370.678C1024.93 369.876 1024.76 368.882 1025.15 367.697C1025.54 366.512 1026.57 365.576 1028.24 364.891L1187.63 299.216ZM296.841 382.722C290.101 377.533 283.471 375.747 276.955 377.366C270.315 378.891 264.212 383.27 258.646 390.501L238.691 416.421C236.993 418.627 237.002 420.391 238.717 421.712L273.462 448.46C275.301 449.875 276.833 449.785 278.059 448.192L297.024 423.559C303.44 415.225 306.644 407.639 306.637 400.803C306.725 393.843 303.459 387.816 296.841 382.722ZM427.574 218.339C441.555 217.975 452.687 223.862 460.967 235.999C465.936 243.281 468.202 250.722 467.769 258.319C467.336 265.917 463.848 274.664 457.304 284.558C457.008 284.947 456.991 285.333 457.253 285.716C457.514 286.099 457.88 286.224 458.35 286.091C470.065 282.405 480.053 281.676 488.313 283.904C496.701 286.045 503.903 291.523 509.918 300.339C518.721 313.243 520.383 326.246 514.904 339.346C509.465 352.231 497.29 365.123 478.381 378.023L426.828 413.195C425.806 413.892 424.8 414.203 423.813 414.128C422.867 413.838 422.088 413.245 421.478 412.351L329.039 276.856C328.255 275.707 327.964 274.595 328.167 273.52C328.37 272.446 328.983 271.559 330.004 270.862L379.257 237.26C397.4 224.882 413.506 218.575 427.574 218.339ZM1176.11 333.475C1175.69 333.018 1174.87 333.033 1173.64 333.52L1112.82 358.323C1110.36 359.299 1109.86 360.588 1111.32 362.191L1141.09 395.008C1142.44 396.497 1143.77 396.124 1145.09 393.889L1176 335.769C1176.49 334.698 1176.52 333.934 1176.11 333.475ZM467.086 308.776C462.608 307.151 457.737 307.01 452.475 308.353C447.341 309.61 442.154 312.025 436.916 315.599L413.152 331.811C410.852 333.38 410.399 335.187 411.794 337.231L436.375 373.261C437.856 375.433 439.428 375.952 441.088 374.819L464.086 359.13C473.924 352.418 479.986 345.661 482.273 338.858C484.6 331.841 483.498 325.01 478.965 318.366C475.653 313.511 471.693 310.314 467.086 308.776ZM971.448 156.457C972.703 154.147 974.35 153.545 976.388 154.652L1000.65 167.827C1002.55 168.86 1002.91 170.465 1001.73 172.64L971.949 227.482C970.768 229.657 971.129 231.26 973.031 232.294L1026.85 261.524C1028.76 262.558 1030.26 262.054 1031.37 260.016L1061.26 204.97C1062.44 202.795 1063.99 202.225 1065.89 203.258L1090.15 216.434C1092.19 217.541 1092.58 219.249 1091.33 221.559L1013.05 365.7C1012.38 366.923 1011.59 367.727 1010.68 368.111C1009.84 368.359 1008.68 368.077 1007.18 367.266L985.571 355.53C982.445 353.833 981.62 351.623 983.096 348.905L1015.87 288.559C1016.68 287.064 1016.27 285.873 1014.64 284.987L960.002 255.314C958.371 254.429 957.149 254.734 956.337 256.228L923.564 316.576C922.088 319.294 919.787 319.804 916.661 318.106L895.049 306.37C893.555 305.558 892.683 304.733 892.434 303.894C892.26 302.92 892.505 301.82 893.17 300.597L971.448 156.457ZM624.241 128.836C625.578 128.451 626.577 128.567 627.237 129.182C627.896 129.797 628.025 130.806 627.624 132.209L600 234.293C599.556 235.547 599.451 236.865 599.687 238.245C599.88 239.477 600.426 241.654 601.323 244.775L618.436 304.309C619.376 307.579 617.987 309.748 614.271 310.816L591.305 317.418C589.522 317.93 588.247 317.975 587.482 317.552C586.674 316.979 586.056 315.95 585.628 314.464L568.195 253.815C567.639 251.883 567.01 250.535 566.308 249.771C565.755 248.965 564.913 248 563.786 246.876L485.337 173.833C484.062 172.752 483.518 171.7 483.708 170.681C484.046 169.618 485.107 168.83 486.89 168.317L514.316 160.434C516.099 159.922 517.375 159.877 518.14 160.301C519.011 160.533 520.086 161.19 521.362 162.271L575.27 214.607C576.44 215.88 577.345 216.504 577.982 216.482C578.725 216.269 579.329 215.291 579.794 213.548L597.171 140.479C597.487 138.78 597.953 137.6 598.568 136.94C599.183 136.281 600.309 135.715 601.944 135.245L624.241 128.836ZM416.761 248.184C409.338 248.006 401.537 250.707 393.36 256.285L371.512 271.19C369.341 272.672 368.909 274.371 370.215 276.287L393.881 310.975C395.363 313.147 396.934 313.667 398.595 312.534L423.318 295.667C426.512 293.488 429.36 291.077 431.863 288.434C434.406 285.575 436.262 282.53 437.428 279.301C438.723 275.984 439.244 272.631 438.994 269.245C438.783 265.644 437.458 262.055 435.017 258.477C430.31 251.579 424.225 248.147 416.761 248.184ZM808.289 122.129C818.486 119.536 829.905 119.357 842.545 121.594C850.769 123.049 858.286 125.401 865.093 128.647C872.08 131.769 878.158 135.593 883.326 140.12C888.645 144.674 892.777 149.725 895.722 155.271C896.197 156.141 896.506 157.06 896.649 158.027C896.819 158.843 896.2 159.676 894.793 160.526L876.43 169.764C875.561 170.238 874.759 170.332 874.024 170.045C873.469 169.632 872.689 168.709 871.687 167.275C868.733 162.669 864.859 158.37 860.068 154.381C855.277 150.392 848.235 147.576 838.946 145.932C828.742 144.126 820.624 144.731 814.592 147.747C808.561 150.763 804.966 155.547 803.807 162.096C803.43 164.228 803.483 166.593 803.965 169.191C804.6 171.817 806.149 174.604 808.611 177.553C811.253 180.376 815.23 183.201 820.542 186.025L853.863 202.76C867.147 209.351 876.107 217.299 880.744 226.601C885.559 235.778 887.011 245.774 885.097 256.587C883.264 266.943 879.009 275.457 872.331 282.129C865.653 288.8 857.076 293.33 846.601 295.717C836.153 297.951 824.152 297.87 810.597 295.472C800.698 293.72 791.609 290.933 783.333 287.112C775.208 283.318 768.186 278.62 762.266 273.017C756.499 267.442 752.099 261.244 749.065 254.425C748.519 253.072 748.402 251.951 748.716 251.064C749.21 250.052 750.147 249.197 751.527 248.499L767.698 240.994C769.713 240.252 771.165 240.038 772.052 240.351C773.091 240.692 773.912 241.387 774.511 242.435C777.456 247.983 780.474 252.679 783.563 256.524C786.831 260.244 790.768 263.297 795.372 265.683C799.976 268.068 805.781 269.88 812.787 271.12C823.447 273.007 832.286 272.764 839.302 270.393C846.346 267.87 850.542 262.801 851.889 255.186C852.428 252.141 852.228 249.278 851.289 246.599C850.528 243.794 848.813 241.056 846.145 238.385C843.629 235.741 839.714 233.005 834.403 230.181L801.767 213.567C793.419 209.263 786.755 204.314 781.776 198.721C776.977 193.002 773.669 186.84 771.853 180.236C770.038 173.632 769.709 167.055 770.868 160.507C772.593 150.76 776.705 142.613 783.204 136.066C789.729 129.368 798.092 124.722 808.289 122.129Z" fill="white"/>
</svg>
